<?xml version="1.0" encoding="UTF-8" standalone="no"?>
<!DOCTYPE svg PUBLIC "-//W3C//DTD SVG 1.1//EN"
 "http://www.w3.org/Graphics/SVG/1.1/DTD/svg11.dtd">
<!-- Generated by graphviz version 2.42.3 ()
 -->
<!-- Title: graphname Pages: 1 -->
<svg width="652pt" height="1149pt"
 viewBox="0.00 0.00 652.00 1149.00" xmlns="http://www.w3.org/2000/svg" xmlns:xlink="http://www.w3.org/1999/xlink">
<g id="graph0" class="graph" transform="scale(1 1) rotate(0) translate(4 1145)">
<title>graphname</title>
<polygon fill="#fafafa" stroke="transparent" points="-4,4 -4,-1145 648,-1145 648,4 -4,4"/>
<g id="clust1" class="cluster">
<title>cluster_google</title>
<polygon fill="#f5f5f5" stroke="#f5f5f5" points="8,-8 8,-1133 636,-1133 636,-8 8,-8"/>
<text text-anchor="start" x="266" y="-23" font-family="Helvetica,sans-Serif" font-weight="bold" font-size="20.00" fill="#707070">Provider google</text>
</g>
<g id="clust2" class="cluster">
<title>cluster_google_</title>
<polygon fill="#eeeeee" stroke="#eeeeee" points="16,-54 16,-1125 628,-1125 628,-54 16,-54"/>
<text text-anchor="start" x="318" y="-58.2" font-family="Helvetica,sans-Serif" font-size="1.00" fill="#383838"> </text>
</g>
<!-- Disk::::821594300226313540 -->
<g id="node1" class="node">
<title>Disk::::821594300226313540</title>
<polygon fill="#e5e5e5" stroke="#dddddd" points="477,-129 377,-129 377,-71 477,-71 477,-129"/>
<text text-anchor="start" x="389" y="-109.2" font-family="Helvetica,sans-Serif" font-weight="bold" font-size="16.00" fill="#707070">Disk</text>
<text text-anchor="start" x="389" y="-84.2" font-family="Helvetica,sans-Serif" font-size="16.00" fill="#383838">extra&#45;disk</text>
</g>
<!-- Disk::::7781482283910405429 -->
<g id="node2" class="node">
<title>Disk::::7781482283910405429</title>
<polygon fill="#e5e5e5" stroke="#dddddd" points="469.5,-205 384.5,-205 384.5,-147 469.5,-147 469.5,-205"/>
<text text-anchor="start" x="397" y="-185.2" font-family="Helvetica,sans-Serif" font-weight="bold" font-size="16.00" fill="#707070">Disk</text>
<text text-anchor="start" x="397" y="-160.2" font-family="Helvetica,sans-Serif" font-size="16.00" fill="#383838">s1&#45;2&#45;uk1</text>
</g>
<!-- Network::::4210819110226468163 -->
<g id="node3" class="node">
<title>Network::::4210819110226468163</title>
<polygon fill="#e5e5e5" stroke="#dddddd" points="620,-277 543,-277 543,-219 620,-219 620,-277"/>
<text text-anchor="start" x="555.5" y="-257.2" font-family="Helvetica,sans-Serif" font-weight="bold" font-size="16.00" fill="#707070">Network</text>
<text text-anchor="start" x="555.5" y="-232.2" font-family="Helvetica,sans-Serif" font-size="16.00" fill="#383838">rhmig</text>
</g>
<!-- SubNetwork::::6178918638745656621 -->
<g id="node4" class="node">
<title>SubNetwork::::6178918638745656621</title>
<polygon fill="#e5e5e5" stroke="#dddddd" points="507,-301 347,-301 347,-243 507,-243 507,-301"/>
<text text-anchor="start" x="359" y="-281.2" font-family="Helvetica,sans-Serif" font-weight="bold" font-size="16.00" fill="#707070">SubNetwork</text>
<text text-anchor="start" x="359" y="-256.2" font-family="Helvetica,sans-Serif" font-size="16.00" fill="#383838">subnet&#45;10&#45;0&#45;0&#45;0&#45;16</text>
</g>
<!-- SubNetwork::::6178918638745656621&#45;&gt;Network::::4210819110226468163 -->
<g id="edge1" class="edge">
<title>SubNetwork::::6178918638745656621&#45;&gt;Network::::4210819110226468163</title>
<path fill="none" stroke="#707070" d="M507.38,-259.51C516.03,-258.15 524.62,-256.79 532.72,-255.52"/>
<polygon fill="#707070" stroke="#707070" points="533.34,-258.96 542.68,-253.95 532.25,-252.05 533.34,-258.96"/>
</g>
<!-- IamBinding::::roles/compute.admin -->
<g id="node5" class="node">
<title>IamBinding::::roles/compute.admin</title>
<polygon fill="#e5e5e5" stroke="#dddddd" points="251,-1117 84,-1117 84,-1059 251,-1059 251,-1117"/>
<text text-anchor="start" x="96.5" y="-1097.2" font-family="Helvetica,sans-Serif" font-weight="bold" font-size="16.00" fill="#707070">IamBinding</text>
<text text-anchor="start" x="96.5" y="-1072.2" font-family="Helvetica,sans-Serif" font-size="16.00" fill="#383838">roles/compute.admin</text>
</g>
<!-- IamBinding::::roles/compute.serviceAgent -->
<g id="node6" class="node">
<title>IamBinding::::roles/compute.serviceAgent</title>
<polygon fill="#e5e5e5" stroke="#dddddd" points="277.5,-1041 57.5,-1041 57.5,-983 277.5,-983 277.5,-1041"/>
<text text-anchor="start" x="69.5" y="-1021.2" font-family="Helvetica,sans-Serif" font-weight="bold" font-size="16.00" fill="#707070">IamBinding</text>
<text text-anchor="start" x="69.5" y="-996.2" font-family="Helvetica,sans-Serif" font-size="16.00" fill="#383838">roles/compute.serviceAgent</text>
</g>
<!-- IamBinding::::roles/compute.viewer -->
<g id="node7" class="node">
<title>IamBinding::::roles/compute.viewer</title>
<polygon fill="#e5e5e5" stroke="#dddddd" points="255,-965 80,-965 80,-907 255,-907 255,-965"/>
<text text-anchor="start" x="92.5" y="-945.2" font-family="Helvetica,sans-Serif" font-weight="bold" font-size="16.00" fill="#707070">IamBinding</text>
<text text-anchor="start" x="92.5" y="-920.2" font-family="Helvetica,sans-Serif" font-size="16.00" fill="#383838">roles/compute.viewer</text>
</g>
<!-- IamBinding::::roles/dns.admin -->
<g id="node8" class="node">
<title>IamBinding::::roles/dns.admin</title>
<polygon fill="#e5e5e5" stroke="#dddddd" points="236,-889 99,-889 99,-831 236,-831 236,-889"/>
<text text-anchor="start" x="111.5" y="-869.2" font-family="Helvetica,sans-Serif" font-weight="bold" font-size="16.00" fill="#707070">IamBinding</text>
<text text-anchor="start" x="111.5" y="-844.2" font-family="Helvetica,sans-Serif" font-size="16.00" fill="#383838">roles/dns.admin</text>
</g>
<!-- IamBinding::::roles/iam.serviceAccountAdmin -->
<g id="node9" class="node">
<title>IamBinding::::roles/iam.serviceAccountAdmin</title>
<polygon fill="#e5e5e5" stroke="#dddddd" points="288.5,-813 46.5,-813 46.5,-755 288.5,-755 288.5,-813"/>
<text text-anchor="start" x="58.5" y="-793.2" font-family="Helvetica,sans-Serif" font-weight="bold" font-size="16.00" fill="#707070">IamBinding</text>
<text text-anchor="start" x="58.5" y="-768.2" font-family="Helvetica,sans-Serif" font-size="16.00" fill="#383838">roles/iam.serviceAccountAdmin</text>
</g>
<!-- IamBinding::::roles/owner -->
<g id="node10" class="node">
<title>IamBinding::::roles/owner</title>
<polygon fill="#e5e5e5" stroke="#dddddd" points="221,-737 114,-737 114,-679 221,-679 221,-737"/>
<text text-anchor="start" x="126.5" y="-717.2" font-family="Helvetica,sans-Serif" font-weight="bold" font-size="16.00" fill="#707070">IamBinding</text>
<text text-anchor="start" x="126.5" y="-692.2" font-family="Helvetica,sans-Serif" font-size="16.00" fill="#383838">roles/owner</text>
</g>
<!-- IamBinding::::roles/resourcemanager.projectIamAdmin -->
<g id="node11" class="node">
<title>IamBinding::::roles/resourcemanager.projectIamAdmin</title>
<polygon fill="#e5e5e5" stroke="#dddddd" points="311,-661 24,-661 24,-603 311,-603 311,-661"/>
<text text-anchor="start" x="36.5" y="-641.2" font-family="Helvetica,sans-Serif" font-weight="bold" font-size="16.00" fill="#707070">IamBinding</text>
<text text-anchor="start" x="36.5" y="-616.2" font-family="Helvetica,sans-Serif" font-size="16.00" fill="#383838">roles/resourcemanager.projectIam...</text>
</g>
<!-- IamBinding::::roles/storage.admin -->
<g id="node12" class="node">
<title>IamBinding::::roles/storage.admin</title>
<polygon fill="#e5e5e5" stroke="#dddddd" points="251,-585 84,-585 84,-527 251,-527 251,-585"/>
<text text-anchor="start" x="96.5" y="-565.2" font-family="Helvetica,sans-Serif" font-weight="bold" font-size="16.00" fill="#707070">IamBinding</text>
<text text-anchor="start" x="96.5" y="-540.2" font-family="Helvetica,sans-Serif" font-size="16.00" fill="#383838">roles/storage.admin</text>
</g>
<!-- IamBinding::::roles/storage.objectAdmin -->
<g id="node13" class="node">
<title>IamBinding::::roles/storage.objectAdmin</title>
<polygon fill="#e5e5e5" stroke="#dddddd" points="273.5,-509 61.5,-509 61.5,-451 273.5,-451 273.5,-509"/>
<text text-anchor="start" x="73.5" y="-489.2" font-family="Helvetica,sans-Serif" font-weight="bold" font-size="16.00" fill="#707070">IamBinding</text>
<text text-anchor="start" x="73.5" y="-464.2" font-family="Helvetica,sans-Serif" font-size="16.00" fill="#383838">roles/storage.objectAdmin</text>
</g>
<!-- IamPolicy::::policy -->
<g id="node14" class="node">
<title>IamPolicy::::policy</title>
<polygon fill="#e5e5e5" stroke="#dddddd" points="213.5,-433 121.5,-433 121.5,-375 213.5,-375 213.5,-433"/>
<text text-anchor="start" x="133.5" y="-413.2" font-family="Helvetica,sans-Serif" font-weight="bold" font-size="16.00" fill="#707070">IamPolicy</text>
<text text-anchor="start" x="133.5" y="-388.2" font-family="Helvetica,sans-Serif" font-size="16.00" fill="#383838">policy</text>
</g>
<!-- ServiceAccount::::112950954233185370823 -->
<g id="node15" class="node">
<title>ServiceAccount::::112950954233185370823</title>
<polygon fill="#e5e5e5" stroke="#dddddd" points="232.5,-357 102.5,-357 102.5,-299 232.5,-299 232.5,-357"/>
<text text-anchor="start" x="114.5" y="-337.2" font-family="Helvetica,sans-Serif" font-weight="bold" font-size="16.00" fill="#707070">ServiceAccount</text>
<text text-anchor="start" x="114.5" y="-312.2" font-family="Helvetica,sans-Serif" font-size="16.00" fill="#383838">grucloud</text>
</g>
<!-- ServiceAccount::::116099554802634020507 -->
<g id="node16" class="node">
<title>ServiceAccount::::116099554802634020507</title>
<polygon fill="#e5e5e5" stroke="#dddddd" points="251,-281 84,-281 84,-223 251,-223 251,-281"/>
<text text-anchor="start" x="96.5" y="-261.2" font-family="Helvetica,sans-Serif" font-weight="bold" font-size="16.00" fill="#707070">ServiceAccount</text>
<text text-anchor="start" x="96.5" y="-236.2" font-family="Helvetica,sans-Serif" font-size="16.00" fill="#383838">91170824493&#45;compute</text>
</g>
<!-- ServiceAccount::::105908581481869541232 -->
<g id="node17" class="node">
<title>ServiceAccount::::105908581481869541232</title>
<polygon fill="#e5e5e5" stroke="#dddddd" points="232.5,-205 102.5,-205 102.5,-147 232.5,-147 232.5,-205"/>
<text text-anchor="start" x="114.5" y="-185.2" font-family="Helvetica,sans-Serif" font-weight="bold" font-size="16.00" fill="#707070">ServiceAccount</text>
<text text-anchor="start" x="114.5" y="-160.2" font-family="Helvetica,sans-Serif" font-size="16.00" fill="#383838">sa&#45;grucloud</text>
</g>
<!-- VmInstance::::2879938255639911733 -->
<g id="node18" class="node">
<title>VmInstance::::2879938255639911733</title>
<polygon fill="#e5e5e5" stroke="#dddddd" points="217.5,-129 117.5,-129 117.5,-71 217.5,-71 217.5,-129"/>
<text text-anchor="start" x="129.5" y="-109.2" font-family="Helvetica,sans-Serif" font-weight="bold" font-size="16.00" fill="#707070">VmInstance</text>
<text text-anchor="start" x="129.5" y="-84.2" font-family="Helvetica,sans-Serif" font-size="16.00" fill="#383838">s1&#45;2&#45;uk1</text>
</g>
<!-- VmInstance::::2879938255639911733&#45;&gt;Disk::::821594300226313540 -->
<g id="edge5" class="edge">
<title>VmInstance::::2879938255639911733&#45;&gt;Disk::::821594300226313540</title>
<path fill="none" stroke="#707070" d="M217.54,-100C259.91,-100 321.27,-100 366.46,-100"/>
<polygon fill="#707070" stroke="#707070" points="366.7,-103.5 376.7,-100 366.7,-96.5 366.7,-103.5"/>
</g>
<!-- VmInstance::::2879938255639911733&#45;&gt;Disk::::7781482283910405429 -->
<g id="edge4" class="edge">
<title>VmInstance::::2879938255639911733&#45;&gt;Disk::::7781482283910405429</title>
<path fill="none" stroke="#707070" d="M217.5,-112.31C245.08,-119.43 280.08,-128.78 311,-138 332.04,-144.28 355.05,-151.75 374.92,-158.41"/>
<polygon fill="#707070" stroke="#707070" points="373.8,-161.73 384.4,-161.6 376.04,-155.09 373.8,-161.73"/>
</g>
<!-- VmInstance::::2879938255639911733&#45;&gt;Network::::4210819110226468163 -->
<g id="edge2" class="edge">
<title>VmInstance::::2879938255639911733&#45;&gt;Network::::4210819110226468163</title>
<path fill="none" stroke="#707070" d="M217.79,-102.84C247.68,-106.87 284.93,-116.29 311,-138 339.72,-161.92 316.72,-192.09 347,-214 376.03,-235.01 471.6,-228.42 507,-234 515.39,-235.32 524.29,-236.88 532.9,-238.47"/>
<polygon fill="#707070" stroke="#707070" points="532.34,-241.93 542.81,-240.34 533.63,-235.05 532.34,-241.93"/>
</g>
<!-- VmInstance::::2879938255639911733&#45;&gt;SubNetwork::::6178918638745656621 -->
<g id="edge3" class="edge">
<title>VmInstance::::2879938255639911733&#45;&gt;SubNetwork::::6178918638745656621</title>
<path fill="none" stroke="#707070" d="M217.62,-102.16C247.81,-105.92 285.47,-115.27 311,-138 343.49,-166.92 318.17,-196.43 347,-229 349.28,-231.57 351.75,-234.02 354.36,-236.35"/>
<polygon fill="#707070" stroke="#707070" points="352.58,-239.41 362.57,-242.96 356.98,-233.96 352.58,-239.41"/>
</g>
</g>
</svg>
