<?xml version="1.0" encoding="UTF-8" standalone="no"?>
<!DOCTYPE svg PUBLIC "-//W3C//DTD SVG 1.1//EN"
 "http://www.w3.org/Graphics/SVG/1.1/DTD/svg11.dtd">
<!-- Generated by graphviz version 2.42.3 ()
 -->
<!-- Title: graphname Pages: 1 -->
<svg width="329pt" height="237pt"
 viewBox="0.00 0.00 329.00 237.00" xmlns="http://www.w3.org/2000/svg" xmlns:xlink="http://www.w3.org/1999/xlink">
<g id="graph0" class="graph" transform="scale(1 1) rotate(0) translate(4 233)">
<title>graphname</title>
<polygon fill="#fafafa" stroke="transparent" points="-4,4 -4,-233 325,-233 325,4 -4,4"/>
<g id="clust1" class="cluster">
<title>cluster_google</title>
<polygon fill="#f5f5f5" stroke="#f5f5f5" points="8,-8 8,-221 313,-221 313,-8 8,-8"/>
<text text-anchor="start" x="104.5" y="-23" font-family="Helvetica,sans-Serif" font-weight="bold" font-size="20.00" fill="#707070">Provider google</text>
</g>
<g id="clust2" class="cluster">
<title>cluster_google_</title>
<polygon fill="#eeeeee" stroke="#eeeeee" points="16,-54 16,-213 305,-213 305,-54 16,-54"/>
<text text-anchor="start" x="156.5" y="-58.2" font-family="Helvetica,sans-Serif" font-size="1.00" fill="#383838"> </text>
</g>
<!-- Network::::7258773012956681426 -->
<g id="node1" class="node">
<title>Network::::7258773012956681426</title>
<polygon fill="#e5e5e5" stroke="#dddddd" points="297,-129 220,-129 220,-71 297,-71 297,-129"/>
<text text-anchor="start" x="232.5" y="-109.2" font-family="Helvetica,sans-Serif" font-weight="bold" font-size="16.00" fill="#707070">Network</text>
<text text-anchor="start" x="232.5" y="-84.2" font-family="Helvetica,sans-Serif" font-size="16.00" fill="#383838">rhmig</text>
</g>
<!-- Disk::::2758807692422780115 -->
<g id="node2" class="node">
<title>Disk::::2758807692422780115</title>
<polygon fill="#e5e5e5" stroke="#dddddd" points="154,-205 54,-205 54,-147 154,-147 154,-205"/>
<text text-anchor="start" x="66" y="-185.2" font-family="Helvetica,sans-Serif" font-weight="bold" font-size="16.00" fill="#707070">Disk</text>
<text text-anchor="start" x="66" y="-160.2" font-family="Helvetica,sans-Serif" font-size="16.00" fill="#383838">extra&#45;disk</text>
</g>
<!-- SubNetwork::::1527258530765706428 -->
<g id="node3" class="node">
<title>SubNetwork::::1527258530765706428</title>
<polygon fill="#e5e5e5" stroke="#dddddd" points="184,-129 24,-129 24,-71 184,-71 184,-129"/>
<text text-anchor="start" x="36" y="-109.2" font-family="Helvetica,sans-Serif" font-weight="bold" font-size="16.00" fill="#707070">SubNetwork</text>
<text text-anchor="start" x="36" y="-84.2" font-family="Helvetica,sans-Serif" font-size="16.00" fill="#383838">subnet&#45;10&#45;0&#45;0&#45;0&#45;16</text>
</g>
<!-- SubNetwork::::1527258530765706428&#45;&gt;Network::::7258773012956681426 -->
<g id="edge1" class="edge">
<title>SubNetwork::::1527258530765706428&#45;&gt;Network::::7258773012956681426</title>
<path fill="none" stroke="#707070" d="M184.38,-100C192.93,-100 201.43,-100 209.45,-100"/>
<polygon fill="#707070" stroke="#707070" points="209.68,-103.5 219.68,-100 209.68,-96.5 209.68,-103.5"/>
</g>
</g>
</svg>
